# File created by Blade
# Date/Time:  Thu Jan 15 17:55:17 2015
#---------------------------------------------------------
:version 1.10
:name HOM
:units
  mass 1.0
  length 1.000000
  angle deg
:documentation
     Acclaim Skeleton File
:root
   axis xyz
   order TX TY TZ RX RY RZ
   position 0.000000 0.000000 0.000000
   orientation 0 0 0
:bonedata
   begin
      id 1
      name Spine_dum
      direction 0.000000 1.000000 0.000000
      length 5.015652
      axis 0.0 0.0 0.0 xyz
   end
   begin
      id 2
      name LeftUpLeg_dum
      direction 1.000000 0.000000 0.000000
      length 4.275145
      axis 0.0 0.0 0.0 xyz
   end
   begin
      id 3
      name RightUpLeg_dum
      direction -1.000000 0.000000 0.000000
      length 4.275145
      axis 0.0 0.0 0.0 xyz
   end
   begin
      id 4
      name Spine
      direction 0.000000 1.000000 0.000000
      length 0.000000
      axis 0.0 0.0 0.0 xyz
      dof rx ry rz
   end
   begin
      id 5
      name Spine_dum1
      direction 0.000000 1.000000 0.000000
      length 15.980521
      axis 0.0 0.0 0.0 xyz
   end
   begin
      id 6
      name Spine_dum2
      direction 0.000000 1.000000 0.000000
      length 12.162712
      axis 0.0 0.0 0.0 xyz
   end
   begin
      id 7
      name Spine_dum3
      direction 0.000000 1.000000 0.000000
      length 12.162712
      axis 0.0 0.0 0.0 xyz
   end
   begin
      id 8
      name Head
      direction 0.000000 1.000000 0.000000
      length 4.527550
      axis 0.0 0.0 0.0 xyz
      dof rx ry rz
   end
   begin
      id 9
      name LeftShoulder
      direction 1.000000 0.000000 0.000000
      length 7.205867
      axis 0.0 0.0 -90.0 xyz
      dof rx ry rz
   end
   begin
      id 10
      name LeftArm
      direction 1.000000 0.000000 0.000000
      length 10.786708
      axis 0.0 0.0 -90.0 xyz
      dof rx ry rz
   end
   begin
      id 11
      name LeftForeArm
      direction 1.000000 0.000000 0.000000
      length 7.946034
      axis 0.0 0.0 -90.0 xyz
      dof rz ry rx
   end
   begin
      id 12
      name LeftHand
      direction 0.000000 0.000000 0.000000
      length 0.000000
      axis 0.0 0.0 -90.0 xyz
      dof rx ry rz
   end
   begin
      id 13
      name LeftHand_dum1
      direction 0.000000 0.000000 0.000000
      length 0.000000
      axis 0.0 0.0 -90.0 xyz
   end
   begin
      id 14
      name LeftHand_dum2
      direction 1.000000 0.000000 0.000000
      length 3.937000
      axis 0.0 0.0 -90.0 xyz
   end
   begin
      id 15
      name LeftHandThumb1
      direction 0.000000 0.000000 1.000000
      length 3.937000
      axis 0.0 0.0 -90.0 xyz
      dof rx ry rz
   end
   begin
      id 16
      name RightShoulder
      direction -1.000000 0.000000 0.000000
      length 7.205867
      axis 0.0 0.0 90.0 xyz
      dof rx ry rz
   end
   begin
      id 17
      name RightArm
      direction -1.000000 0.000000 0.000000
      length 10.786708
      axis 0.0 0.0 90.0 xyz
      dof rx ry rz
   end
   begin
      id 18
      name RightForeArm
      direction -1.000000 0.000000 0.000000
      length 7.946034
      axis 0.0 0.0 90.0 xyz
      dof rz ry rx
   end
   begin
      id 19
      name RightHand
      direction 0.000000 0.000000 0.000000
      length 0.000000
      axis 0.0 0.0 90.0 xyz
      dof rx ry rz
   end
   begin
      id 20
      name RightHand_dum1
      direction 0.000000 0.000000 0.000000
      length 0.000000
      axis 0.0 0.0 90.0 xyz
   end
   begin
      id 21
      name RightHand_dum2
      direction -1.000000 0.000000 0.000000
      length 3.937000
      axis 0.0 0.0 90.0 xyz
   end
   begin
      id 22
      name RightHandThumb1
      direction 0.000000 0.000000 1.000000
      length 3.937000
      axis 0.0 0.0 90.0 xyz
      dof rx ry rz
   end
   begin
      id 23
      name LeftUpLeg
      direction 0.000000 -1.000000 0.000000
      length 17.046659
      axis 0.0 0.0 0.0 xyz
      dof rx ry rz
   end
   begin
      id 24
      name LeftLeg
      direction 0.000000 -1.000000 0.000000
      length 17.458438
      axis 0.0 0.0 0.0 xyz
      dof rx ry rz
   end
   begin
      id 25
      name LeftFoot
      direction 0.000000 -0.258819 0.965926
      length 5.099406
      axis 15.0 0.0 0.0 xyz
      dof rx ry rz
   end
   begin
      id 26
      name LeftToeBase
      direction 0.000000 0.000000 1.000000
      length 2.952750
      axis 0.0 0.0 0.0 xyz
      dof rx ry rz
   end
   begin
      id 27
      name RightUpLeg
      direction 0.000000 -1.000000 0.000000
      length 17.046659
      axis 0.0 0.0 0.0 xyz
      dof rx ry rz
   end
   begin
      id 28
      name RightLeg
      direction 0.000000 -1.000000 0.000000
      length 17.458438
      axis 0.0 0.0 0.0 xyz
      dof rx ry rz
   end
   begin
      id 29
      name RightFoot
      direction 0.000000 -0.258819 0.965926
      length 5.099406
      axis 15.0 0.0 0.0 xyz
      dof rx ry rz
   end
   begin
      id 30
      name RightToeBase
      direction 0.000000 0.000000 1.000000
      length 2.952750
      axis 0.0 0.0 0.0 xyz
      dof rx ry rz
   end
:hierarchy
   begin
      root Spine_dum LeftUpLeg_dum RightUpLeg_dum
      Spine_dum Spine
      LeftUpLeg_dum LeftUpLeg
      RightUpLeg_dum RightUpLeg
      Spine Spine_dum1 Spine_dum2 Spine_dum3
      Spine_dum1 Head
      Spine_dum2 LeftShoulder
      Spine_dum3 RightShoulder
      LeftShoulder LeftArm
      LeftArm LeftForeArm
      LeftForeArm LeftHand
      LeftHand LeftHand_dum1 LeftHand_dum2
      LeftHand_dum1 LeftHandThumb1
      RightShoulder RightArm
      RightArm RightForeArm
      RightForeArm RightHand
      RightHand RightHand_dum1 RightHand_dum2
      RightHand_dum1 RightHandThumb1
      LeftUpLeg LeftLeg
      LeftLeg LeftFoot
      LeftFoot LeftToeBase
      RightUpLeg RightLeg
      RightLeg RightFoot
      RightFoot RightToeBase
   end

# File created by Blade
# Date/Time:  Thu Jan 15 17:55:09 2015
# Frame Rate: 120.000 fps
#------------------------------------------------------
:FULLY-SPECIFIED
:DEGREES
1357
root 6.858203 34.632201 -20.862181 45.986196 -2.544138 1.139336
Spine 48.511907 -8.151880 -14.595074
Head -35.678602 23.976133 11.822312
LeftShoulder -17.115451 -15.013217 26.565449
LeftArm 81.669301 -2.502457 -53.639609
LeftForeArm 0.000000 31.123166 -0.233969
LeftHand 4.492346 -0.000000 12.950457
LeftHandThumb1 -26.253704 33.147579 0.000000
RightShoulder 21.143223 45.613202 -13.105905
RightArm 52.278266 5.410182 71.947388
RightForeArm -0.000000 -55.939730 15.295055
RightHand -0.581314 -0.000000 -10.786643
RightHandThumb1 -24.326973 -32.862282 -0.000000
LeftUpLeg -53.908665 7.149522 3.557348
LeftLeg -5.118613 -0.000000 0.000000
LeftFoot -6.671112 15.064362 -16.430221
LeftToeBase 28.636687 -0.000000 -0.000000
RightUpLeg -53.573967 -7.682999 -0.213188
RightLeg -11.027354 -0.000000 0.000000
RightFoot 1.313185 -37.018956 4.894211
RightToeBase 27.816501 -0.000000 -0.000000
1358
root 6.869461 34.648828 -20.786402 44.976010 -2.582628 1.195445
Spine 48.106215 -8.243569 -14.561614
Head -35.980191 24.080045 11.686250
LeftShoulder -17.161116 -14.820995 26.320147
LeftArm 81.692621 -2.828410 -53.420883
LeftForeArm -0.000000 30.998694 -0.135202
LeftHand 4.626497 -0.000000 13.044532
LeftHandThumb1 -26.253704 33.147579 0.000000
RightShoulder 21.113087 45.193773 -12.845272
RightArm 52.477585 5.831805 71.632495
RightForeArm -0.000000 -55.750280 15.408273
RightHand -0.723217 -0.000000 -10.993088
RightHandThumb1 -24.326973 -32.862282 -0.000000
LeftUpLeg -52.775131 7.045213 3.592296
LeftLeg -5.119976 -0.000000 0.000000
LeftFoot -6.767323 15.111105 -16.428216
LeftToeBase 28.649779 -0.000000 -0.000000
RightUpLeg -52.489433 -7.849774 -0.192462
RightLeg -11.010871 -0.000000 0.000000
RightFoot 1.210201 -36.821071 4.928212
RightToeBase 27.732812 -0.000000 -0.000000
1359
root 6.882162 34.665661 -20.709615 43.999413 -2.600597 1.245775
Spine 47.616551 -8.301823 -14.435960
Head -36.214093 24.111927 11.594277
LeftShoulder -17.130559 -14.723568 26.102407
LeftArm 81.624175 -3.069702 -53.318791
LeftForeArm -0.000000 30.940745 -0.000052
LeftHand 4.748968 -0.000000 13.250897
LeftHandThumb1 -26.253704 33.147579 0.000000
RightShoulder 20.976709 44.669970 -12.712189
RightArm 52.690087 6.325928 71.366958
RightForeArm -0.000000 -55.419010 15.585142
RightHand -0.550050 -0.000000 -11.088006
RightHandThumb1 -24.326973 -32.862282 -0.000000
LeftUpLeg -51.734488 6.988447 3.544081
LeftLeg -5.026905 -0.000000 0.000000
LeftFoot -6.896318 15.076374 -16.377532
LeftToeBase 28.630915 -0.000000 -0.000000
RightUpLeg -51.455702 -8.028199 -0.169792
RightLeg -10.942738 -0.000000 0.000000
RightFoot 1.084320 -36.616881 4.900421
RightToeBase 27.777944 -0.000000 -0.000000
1360
root 6.891042 34.685255 -20.622037 42.899489 -2.657687 1.274953
Spine 47.247444 -8.296733 -14.365247
Head -36.458861 24.176936 11.498004
LeftShoulder -17.099122 -14.481410 25.855604
LeftArm 81.654930 -3.402937 -53.190611
LeftForeArm 0.000000 30.910261 0.181379
LeftHand 4.769235 -0.000000 13.394058
LeftHandThumb1 -26.253704 33.147579 0.000000
RightShoulder 20.943141 44.331565 -12.504752
RightArm 52.714154 6.860961 71.226847
RightForeArm -0.000000 -55.204149 15.844157
RightHand -0.603273 -0.000000 -11.095034
RightHandThumb1 -24.326973 -32.862282 -0.000000
LeftUpLeg -50.509555 6.964477 3.528768
LeftLeg -4.996891 -0.000000 0.000000
LeftFoot -7.021685 15.049989 -16.348476
LeftToeBase 28.709592 -0.000000 -0.000000
RightUpLeg -50.302622 -8.207408 -0.111827
RightLeg -10.857834 -0.000000 0.000000
RightFoot 0.931615 -36.348239 4.911619
RightToeBase 27.777100 -0.000000 -0.000000
1361
root 6.900844 34.704134 -20.531126 41.841238 -2.726689 1.312808
Spine 46.796909 -8.287088 -14.309825
Head -36.646068 24.208015 11.512440
LeftShoulder -17.073346 -14.340083 25.686903
LeftArm 81.567196 -3.609897 -52.989251
LeftForeArm -0.000000 30.831151 0.334120
LeftHand 4.885622 -0.000000 13.863113
LeftHandThumb1 -26.253704 33.147579 0.000000
RightShoulder 20.877609 43.807092 -12.270827
RightArm 52.910331 7.322189 70.942054
RightForeArm -0.000000 -54.948766 16.073804
RightHand -0.900928 0.000000 -11.042226
RightHandThumb1 -24.326973 -32.862282 -0.000000
LeftUpLeg -49.321330 6.943143 3.498464
LeftLeg -4.963910 -0.000000 0.000000
LeftFoot -7.165826 15.037585 -16.328552
LeftToeBase 28.755382 -0.000000 -0.000000
RightUpLeg -49.163229 -8.314685 -0.188244
RightLeg -10.781478 -0.000000 0.000000
RightFoot 0.784840 -36.183100 4.878844
RightToeBase 27.873538 -0.000000 -0.000000
1362
root 6.912974 34.726134 -20.435440 40.784642 -2.755076 1.354027
Spine 46.350731 -8.361021 -14.223505
Head -36.864271 24.299669 11.396826
LeftShoulder -17.096295 -14.128555 25.475977
LeftArm 81.538784 -3.836969 -52.749165
LeftForeArm -0.000000 30.711875 0.447439
LeftHand 5.058958 -0.000000 13.676241
LeftHandThumb1 -26.253704 33.147579 0.000000
RightShoulder 20.845607 43.537781 -12.089136
RightArm 52.871880 7.782182 70.880425
RightForeArm 0.000000 -54.736422 16.265433
RightHand -0.765335 -0.000000 -11.169056
RightHandThumb1 -24.326973 -32.862282 -0.000000
LeftUpLeg -48.152119 6.876127 3.509031
LeftLeg -4.879719 -0.000000 0.000000
LeftFoot -7.311906 15.027982 -16.271226
LeftToeBase 28.733448 -0.000000 -0.000000
RightUpLeg -48.003673 -8.449570 -0.263355
RightLeg -10.715256 -0.000000 0.000000
RightFoot 0.621943 -36.054831 4.947716
RightToeBase 27.786151 -0.000000 -0.000000
1363
root 6.924305 34.749159 -20.335010 39.723217 -2.822931 1.377262
Spine 45.889333 -8.370652 -14.139610
Head -37.087942 24.349145 11.316002
LeftShoulder -17.105823 -13.865211 25.261518
LeftArm 81.536301 -4.077497 -52.577352
LeftForeArm -0.000000 30.624464 0.654277
LeftHand 5.269562 -0.000000 13.508666
LeftHandThumb1 -26.253704 33.147579 0.000000
RightShoulder 20.792431 43.255432 -11.918845
RightArm 52.824367 8.201698 70.793878
RightForeArm -0.000000 -54.703352 16.507365
RightHand -1.007604 -0.000000 -10.922097
RightHandThumb1 -24.326973 -32.862282 -0.000000
LeftUpLeg -46.945078 6.854011 3.500330
LeftLeg -4.840783 -0.000000 0.000000
LeftFoot -7.467637 15.045561 -16.275953
LeftToeBase 28.745516 -0.000000 -0.000000
RightUpLeg -46.877057 -8.576830 -0.314540
RightLeg -10.579078 -0.000000 0.000000
RightFoot 0.415911 -35.852217 5.011401
RightToeBase 27.827186 -0.000000 -0.000000
1364
root 6.936169 34.772914 -20.229009 38.634495 -2.876120 1.415503
Spine 45.434366 -8.344264 -14.008131
Head -37.287634 24.357258 11.238992
LeftShoulder -17.044942 -13.747961 25.104019
LeftArm 81.431563 -4.230574 -52.359760
LeftForeArm 0.000000 30.501284 0.794384
LeftHand 5.261948 -0.000000 13.360868
LeftHandThumb1 -26.253704 33.147579 0.000000
RightShoulder 20.624124 42.938077 -11.879063
RightArm 52.770913 8.609319 70.692573
RightForeArm -0.000000 -54.437451 16.707499
RightHand -0.623467 0.000000 -11.227833
RightHandThumb1 -24.326973 -32.862282 -0.000000
LeftUpLeg -45.717084 6.821778 3.486814
LeftLeg -4.774027 -0.000000 0.000000
LeftFoot -7.637623 15.011886 -16.316472
LeftToeBase 28.710270 -0.000000 -0.000000
RightUpLeg -45.684674 -8.690312 -0.425468
RightLeg -10.482520 -0.000000 0.000000
RightFoot 0.202728 -35.696745 5.107265
RightToeBase 27.811206 -0.000000 -0.000000
1365
root 6.946332 34.797386 -20.116494 37.586125 -2.919698 1.430163
Spine 44.922541 -8.323202 -13.862896
Head -37.486203 24.332438 11.230961
LeftShoulder -17.036983 -13.616537 25.011635
LeftArm 81.341579 -4.328514 -52.342671
LeftForeArm -0.000000 30.749377 0.894881
LeftHand 5.240913 -0.000000 13.181459
LeftHandThumb1 -26.253704 33.147579 0.000000
RightShoulder 20.440001 42.615579 -11.844556
RightArm 52.756565 9.085398 70.809709
RightForeArm -0.000000 -54.580945 16.863552
RightHand -0.630886 0.000000 -11.195170
RightHandThumb1 -24.326973 -32.862282 -0.000000
LeftUpLeg -44.503868 6.784933 3.517297
LeftLeg -4.729108 -0.000000 0.000000
LeftFoot -7.827637 15.023577 -16.314612
LeftToeBase 28.770719 -0.000000 -0.000000
RightUpLeg -44.538164 -8.836226 -0.461113
RightLeg -10.364489 -0.000000 0.000000
RightFoot -0.010127 -35.495716 5.118126
RightToeBase 27.922225 -0.000000 -0.000000
1366
root 6.957638 34.822541 -20.000676 36.558924 -2.975078 1.458756
Spine 44.379112 -8.349785 -13.757352
Head -37.650186 24.308888 11.191836
LeftShoulder -17.066132 -13.476656 24.895749
LeftArm 81.212378 -4.374649 -52.078193
LeftForeArm -0.000000 30.751817 0.983072
LeftHand 5.360615 -0.000000 13.100689
LeftHandThumb1 -26.253704 33.147579 0.000000
RightShoulder 20.315280 42.302755 -11.794999
RightArm 52.674889 9.338721 70.639267
RightForeArm -0.000000 -54.391229 17.020498
RightHand -0.583861 -0.000000 -11.623795
RightHandThumb1 -24.326973 -32.862282 -0.000000
LeftUpLeg -43.327065 6.772343 3.504677
LeftLeg -4.645160 -0.000000 0.000000
LeftFoot -7.973218 14.971288 -16.296009
LeftToeBase 28.589391 -0.000000 -0.000000
RightUpLeg -43.382309 -8.894029 -0.621508
RightLeg -10.269638 -0.000000 0.000000
RightFoot -0.229270 -35.436831 5.204133
RightToeBase 27.938745 -0.000000 -0.000000
1367
root 6.970070 34.846172 -19.885353 35.600229 -3.014625 1.481050
Spine 43.726273 -8.284058 -13.585177
Head -37.743117 24.307010 11.337368
LeftShoulder -16.994575 -13.363705 24.896530
LeftArm 81.125495 -4.353193 -52.007552
LeftForeArm -0.000000 30.778704 0.992279
LeftHand 5.305812 -0.000000 13.228581
LeftHandThumb1 -26.253704 33.147579 0.000000
RightShoulder 19.967625 41.537188 -11.880133
RightArm 52.937392 9.653122 70.276084
RightForeArm -0.000000 -53.909231 17.283816
RightHand -0.647215 0.000000 -11.433844
RightHandThumb1 -24.326973 -32.862282 -0.000000
LeftUpLeg -42.222636 6.730835 3.521668
LeftLeg -4.553120 -0.000000 0.000000
LeftFoot -8.191040 14.971434 -16.283332
LeftToeBase 28.593453 -0.000000 -0.000000
RightUpLeg -42.311964 -9.022354 -0.702556
RightLeg -10.152573 -0.000000 0.000000
RightFoot -0.467266 -35.256740 5.304584
RightToeBase 27.970532 -0.000000 -0.000000
1368
root 6.979096 34.871799 -19.762107 34.640825 -3.064305 1.480145
Spine 43.085551 -8.292888 -13.436606
Head -37.870039 24.292490 11.392966
LeftShoulder -17.004169 -13.120768 24.759278
LeftArm 81.111357 -4.450131 -51.874289
LeftForeArm -0.000000 30.832643 1.050879
LeftHand 5.298361 -0.000000 13.124316
LeftHandThumb1 -26.253704 33.147579 0.000000
RightShoulder 19.812222 41.264092 -11.821356
RightArm 52.824297 9.881126 70.174154
RightForeArm 0.000000 -53.854105 17.420105
RightHand -0.598193 -0.000000 -11.346810
RightHandThumb1 -24.326973 -32.862282 -0.000000
LeftUpLeg -41.093813 6.728250 3.550278
LeftLeg -4.470922 -0.000000 0.000000
LeftFoot -8.408431 14.916222 -16.348338
LeftToeBase 28.516205 -0.000000 -0.000000
RightUpLeg -41.231248 -9.145445 -0.754758
RightLeg -10.033724 -0.000000 0.000000
RightFoot -0.735365 -35.074163 5.504228
RightToeBase 27.888229 -0.000000 -0.000000
1369
root 6.988038 34.898751 -19.633439 33.676638 -3.085906 1.521661
Spine 42.480010 -8.435396 -13.383104
Head -38.002362 24.406981 11.393312
LeftShoulder -17.158037 -12.995638 24.696812
LeftArm 80.899434 -4.366295 -51.394304
LeftForeArm -0.000000 30.610299 1.220568
LeftHand 5.231385 -0.000000 12.966101
LeftHandThumb1 -26.253704 33.147579 0.000000
RightShoulder 19.769578 41.094394 -11.668416
RightArm 52.673553 10.029371 70.119257
RightForeArm -0.000000 -53.921493 17.609286
RightHand -0.936436 -0.000000 -10.748726
RightHandThumb1 -24.326973 -32.862282 -0.000000
LeftUpLeg -39.975830 6.751784 3.496833
LeftLeg -4.377141 -0.000000 0.000000
LeftFoot -8.569735 14.776307 -16.378271
LeftToeBase 28.478702 -0.000000 -0.000000
RightUpLeg -40.137288 -9.325098 -0.820978
RightLeg -9.912035 -0.000000 0.000000
RightFoot -0.993539 -34.866571 5.530581
RightToeBase 27.985753 -0.000000 -0.000000
